<svg width="163" height="50" viewBox="0 0 163 50" fill="none" xmlns="http://www.w3.org/2000/svg">
<path d="M0 4C0 1.79086 1.79086 0 4 0H160.592C162.311 0 163.229 2.02384 162.098 3.31701L145.661 22.1017C144.701 23.1991 144.669 24.8279 145.585 25.9623L162.37 46.7433C163.426 48.0513 162.495 50 160.814 50H4C1.79086 50 0 48.2091 0 46V4Z" fill="#21B82F"/>
<path d="M0 4C0 1.79086 1.79086 0 4 0H160.592C162.311 0 163.229 2.02384 162.098 3.31701L145.661 22.1017C144.701 23.1991 144.669 24.8279 145.585 25.9623L162.37 46.7433C163.426 48.0513 162.495 50 160.814 50H4C1.79086 50 0 48.2091 0 46V4Z" fill="url(#paint0_linear)"/>
<defs>
<linearGradient id="paint0_linear" x1="-7.36319e-07" y1="25.4902" x2="165" y2="25.4902" gradientUnits="userSpaceOnUse">
<stop stop-color="#21B82F"/>
<stop offset="1" stop-color="#257C25"/>
</linearGradient>
</defs>
</svg>
