<svg width="131" height="64" viewBox="0 0 131 64" fill="none" xmlns="http://www.w3.org/2000/svg">
<path fill-rule="evenodd" clip-rule="evenodd" d="M53.6113 5.057C50.5143 7.817 48.1073 10.2805 48.2623 10.5315C48.4178 10.783 48.2518 10.888 47.8938 10.7645C46.9968 10.456 40.7528 16.207 41.1998 16.93C41.3933 17.2435 42.7753 17.5 44.2723 17.5H46.9928V28.75V40H30.4513C17.4403 40 13.9538 40.1335 14.1178 40.625C14.2778 41.1055 18.2818 41.2805 31.4093 41.3815L48.4928 41.513L48.5068 29.3815L48.5203 17.25L55.7903 11C59.7893 7.5625 63.2143 4.838 63.4018 4.946C63.5893 5.054 65.9618 7.81 68.6738 11.071C73.4158 16.772 73.6793 17 75.5403 17H77.4748L77.6088 29.125L77.7428 41.25L95.3678 41.3815L112.993 41.513V38.5065V35.5H115.213C116.435 35.5 117.601 35.229 117.806 34.8975C118.044 34.513 116.215 32.4365 112.742 29.1475L107.306 24H100.65H93.9928V20.5V17H96.2428C99.0723 17 99.1723 16.193 96.6178 13.9775C95.5868 13.083 93.5968 11.316 92.1963 10.0505C90.7953 8.7855 88.9678 7.155 88.1353 6.4285C87.3023 5.7015 85.3523 3.9575 83.8018 2.5535L80.9823 0L70.1123 0.0195007L59.2428 0.0394993L53.6113 5.057ZM61.4788 2.233C61.8133 2.6365 62.0098 3.1585 61.9153 3.393C61.8203 3.628 58.7783 6.448 55.1548 9.66C48.8883 15.215 48.4613 15.4995 46.4048 15.4865L44.2428 15.473L46.0033 13.8615C46.9718 12.975 49.5448 10.675 51.7213 8.75C53.8973 6.825 56.5928 4.412 57.7103 3.3875C59.9508 1.334 60.5743 1.1435 61.4788 2.233ZM55.9928 24.2665C55.9928 26.6965 56.1598 27.5285 56.6178 27.3775C56.9653 27.263 57.3098 26.1475 57.3943 24.8635L57.5453 22.555L59.6443 22.4025C62.6408 22.185 62.0173 21.278 58.7488 21.1L55.9928 20.95V24.2665ZM64.7068 21.6635C64.2248 22.92 64.7153 27.163 65.3678 27.3775C65.8128 27.524 65.9928 26.8515 65.9928 25.0415V22.5H68.5343C70.3443 22.5 71.0168 22.32 70.8698 21.875C70.5593 20.933 65.0598 20.744 64.7068 21.6635ZM55.9928 33.2665C55.9928 35.6965 56.1598 36.5285 56.6178 36.3775C56.9673 36.2625 57.3098 35.1415 57.3953 33.836L57.5478 31.5H59.8118C63.2288 31.5 62.3768 30.2875 58.8283 30.1L55.9928 29.95V33.2665ZM64.7068 30.6635C64.2248 31.92 64.7153 36.163 65.3678 36.3775C65.8128 36.524 65.9928 35.8515 65.9928 34.0415V31.5H68.5343C70.3443 31.5 71.0168 31.32 70.8698 30.875C70.5593 29.933 65.0598 29.744 64.7068 30.6635ZM49.9928 46.283C49.9928 46.4385 50.2258 47.001 50.5103 47.533C50.9108 48.2815 51.5668 48.5 53.4103 48.5C55.7888 48.5 56.9928 47.8785 56.9928 46.65C56.9928 45.8885 55.1948 45.769 54.7428 46.5C54.5728 46.775 53.9973 47 53.4633 47C52.9293 47 52.4928 46.775 52.4928 46.5C52.4928 46.225 51.9303 46 51.2428 46C50.5553 46 49.9928 46.1275 49.9928 46.283ZM2.49677 46.9465C0.640771 47.463 0.00827062 49.253 0.000270619 54.0135C-0.0107294 60.1945 0.284771 60.5 6.27127 60.5C10.9763 60.5 10.9928 60.4955 10.9928 59.248C10.9928 58.015 10.9368 57.9975 7.36777 58.123L3.74277 58.25V53.75V49.25L7.36777 49.103C10.8438 48.962 10.9928 48.906 10.9928 47.728C10.9928 46.5325 10.8973 46.5015 7.36777 46.55C5.37377 46.5775 3.18227 46.7555 2.49677 46.9465ZM63.3033 51.293C62.9473 56.3615 62.4393 58 61.2253 58C60.6798 58 60.4928 58.638 60.4928 60.5C60.4928 62.9445 60.5263 63 61.9928 63C63.2593 63 63.4928 62.8055 63.4928 61.75C63.4928 60.516 63.5463 60.5 67.6888 60.5C71.7473 60.5 71.8948 60.541 72.1983 61.75C72.4448 62.7335 72.8293 63 74.0023 63C75.4578 63 75.4928 62.941 75.4928 60.5C75.4928 58.636 75.3063 58 74.7593 58C74.1663 58 73.9983 56.9215 73.8843 52.375L73.7428 46.75L68.6928 46.6085L63.6428 46.4665L63.3033 51.293ZM115.85 46.8095C115.653 47.006 115.493 50.1665 115.493 53.8335V60.5H117.223H118.952L119.098 56.375L119.243 52.25L120.555 54.75C121.612 56.765 122.146 57.2775 123.305 57.3925C124.573 57.518 124.92 57.2225 126.243 54.8925L127.743 52.25L127.888 56.375L128.033 60.5H129.513H130.993V53.5V46.5H129.364C127.847 46.5 127.596 46.7595 125.739 50.2455C124.641 52.3055 123.564 53.9335 123.346 53.863C123.128 53.793 122.1 52.164 121.063 50.243C119.446 47.2505 118.963 46.7285 117.691 46.6015C116.875 46.5195 116.046 46.6135 115.85 46.8095ZM70.4928 53.5V58H67.7553C65.0233 58 65.0183 57.9975 65.5053 56.7175C65.7733 56.012 65.9958 54.4935 65.9998 53.3425C66.0118 49.604 66.3668 49 68.5513 49H70.4928V53.5ZM11.4928 51.2185C11.4928 52.2275 11.7718 52.4635 13.1178 52.5935L14.7428 52.75L14.8888 56.625C15.0338 60.468 15.0458 60.5 16.3888 60.501L17.7428 60.5015V56.626V52.75L19.3678 52.5935C20.7138 52.4635 20.9928 52.2275 20.9928 51.2185C20.9928 50.0125 20.9433 50 16.2428 50C11.5423 50 11.4928 50.0125 11.4928 51.2185ZM22.9928 57V64H24.4928C25.8738 64 25.9928 63.861 25.9928 62.25V60.5H28.7428C32.5923 60.5 33.4928 59.526 33.4928 55.3615C33.4928 51.423 32.6288 50 30.2378 50C29.3038 50 27.9283 50.2785 27.1808 50.619C26.1008 51.1115 25.7798 51.1115 25.6158 50.619C25.5023 50.2785 24.8658 50 24.2013 50H22.9928V57ZM36.3203 50.9145C35.1778 52.1765 35.1473 58.5835 36.2783 59.7145C37.2553 60.691 44.4548 60.838 45.3928 59.9C46.3308 58.962 46.1838 51.7625 45.2073 50.7855C44.0078 49.5865 37.4358 49.6815 36.3203 50.9145ZM48.4928 55.25V60.5H50.2063C51.7588 60.5 52.0668 60.242 53.4928 57.75C54.3583 56.2375 55.2748 55 55.5293 55C55.7843 55 55.9928 56.2375 55.9928 57.75C55.9928 60.472 56.0078 60.5 57.4928 60.5H58.9928V55.25V50H57.2793C55.7278 50 55.4183 50.258 53.9988 52.7395C53.1368 54.246 52.2203 55.6095 51.9623 55.769C51.6893 55.9375 51.4928 54.79 51.4928 53.0295V50H49.9928H48.4928V55.25ZM77.8203 50.9145C77.2138 51.5845 76.9928 52.777 76.9928 55.3785C76.9928 60.1105 77.4088 60.5 82.4673 60.5C87.4013 60.5 87.7428 60.1525 87.7428 55.131C87.7428 50.453 87.2558 50 82.2248 50C79.3943 50 78.4753 50.191 77.8203 50.9145ZM89.9928 55.25V60.5H91.4678C92.9128 60.5 92.9458 60.4415 93.0928 57.625L93.2428 54.75L94.4088 56.625C95.2123 57.918 95.9343 58.5 96.7343 58.5C97.5323 58.5 98.2603 57.9155 99.0683 56.625L100.243 54.75L100.393 57.625C100.54 60.4415 100.573 60.5 102.018 60.5H103.493V55.25V50H101.812C100.27 50 100.001 50.2455 98.5333 53C97.6538 54.65 96.8383 56 96.7208 56C96.6033 56 95.8258 54.65 94.9928 53C93.5778 50.197 93.3643 50 91.7358 50H89.9928V55.25ZM42.8923 55.405L43.0423 58.56L40.8923 58.405L38.7428 58.25L38.5888 55.5475C38.4163 52.5105 38.8773 51.9145 41.2428 52.1195C42.7193 52.248 42.7453 52.2995 42.8923 55.405ZM84.3923 55.405L84.5423 58.56L82.3923 58.405L80.2428 58.25L80.0888 55.5475C79.9163 52.5105 80.3773 51.9145 82.7428 52.1195C84.2193 52.248 84.2453 52.2995 84.3923 55.405ZM30.2428 55.238C30.2428 57.4745 30.1098 57.7725 28.9263 58.189C26.7118 58.9675 25.9928 58.333 25.9928 55.599C25.9928 54.261 26.1533 53.006 26.3498 52.8095C26.5463 52.613 27.5028 52.5195 28.4748 52.601C30.2418 52.75 30.2428 52.751 30.2428 55.238ZM105.493 53.75C105.493 54.979 105.559 55 109.493 55C113.426 55 113.493 54.979 113.493 53.75C113.493 52.521 113.426 52.5 109.493 52.5C105.559 52.5 105.493 52.521 105.493 53.75Z" fill="#FBFBFB"/>
</svg>
