<svg width="44" height="43" viewBox="0 0 44 43" fill="none" xmlns="http://www.w3.org/2000/svg">
<path d="M43.8812 16.037L38.1175 7.14119C38.0886 7.09682 38.056 7.05683 38.0189 7.01984L33.3031 2.3103C33.0133 2.02092 32.5442 2.02092 32.2552 2.3103L29.6357 4.92626L27.0155 7.543C26.7257 7.83238 26.7257 8.30002 27.0155 8.5894L31.7314 13.2989C32.0093 13.5765 32.5013 13.5765 32.7792 13.2989L34.3509 11.7286L41.1624 18.531C41.3069 18.6753 41.4966 18.7478 41.6862 18.7478C41.8759 18.7478 42.0649 18.6761 42.2109 18.5317L43.7826 16.9622C44.0301 16.7156 44.0709 16.3301 43.8812 16.037ZM41.6856 16.9613L34.874 10.159C34.7355 10.0198 34.5465 9.94209 34.3502 9.94209C34.1538 9.94209 33.9656 10.0205 33.8263 10.1582L32.2546 11.7285L28.5866 8.06538L32.7785 3.87909L36.9149 8.00994L42.3103 16.3375L41.6856 16.9613Z" fill="#21B82F"/>
<path d="M32.2538 3.35676L29.1104 0.216867C28.9719 0.0777529 28.7829 0 28.5865 0C28.3902 0 28.202 0.0776671 28.0627 0.216095L25.9664 2.30967C25.6766 2.59906 25.6766 3.06669 25.9664 3.35607L29.1105 6.49597C29.2491 6.63508 29.438 6.71283 29.6343 6.71283C29.8307 6.71283 30.0197 6.63517 30.1582 6.49674L32.2538 4.40316C32.5436 4.11386 32.5436 3.64615 32.2538 3.35676ZM29.6343 4.92718L27.5387 2.83369L28.5865 1.78651L30.6822 3.88009L29.6343 4.92718Z" fill="#21B82F"/>
<path d="M40.1138 19.5785L28.0626 7.5427C27.7847 7.26516 27.2927 7.26516 27.0148 7.5427L25.967 8.58988L23.3467 5.97314C23.0569 5.68376 22.5887 5.68376 22.2989 5.97314L20.2033 8.06595C20.064 8.20437 19.9861 8.39301 19.9861 8.5891C19.9861 8.7852 20.0639 8.97315 20.2033 9.11226L22.8227 11.729L17.7282 16.8167C17.0709 17.4739 17.0709 18.5432 17.7282 19.2004L18.4856 19.9567C19.1436 20.6132 20.2143 20.6138 20.8724 19.9567L25.967 14.8691L27.5386 16.4394L22.4441 21.5271C21.7861 22.1842 21.7861 23.2535 22.4441 23.9107L23.2007 24.6663C23.52 24.9845 23.9439 25.1599 24.3945 25.1599C24.8457 25.1599 25.2697 24.9845 25.5883 24.6656L30.817 19.444L37.1431 22.8459C37.4314 23.0013 37.787 22.9494 38.0183 22.7178L40.1139 20.625C40.2532 20.4867 40.3311 20.2979 40.3311 20.1018C40.3309 19.9056 40.2531 19.7176 40.1138 19.5785ZM37.3594 21.2828L31.0333 17.8809C30.7451 17.7255 30.3894 17.778 30.1581 18.009L24.5396 23.6199C24.4404 23.7198 24.3492 23.7198 24.2492 23.6199L23.4926 22.8643C23.4126 22.7844 23.4126 22.6534 23.4926 22.5735L29.1111 16.9626C29.2504 16.8241 29.3282 16.6355 29.3282 16.4394C29.3282 16.2433 29.2504 16.0554 29.1111 15.9162L26.4908 13.2995C26.3522 13.1604 26.1633 13.0827 25.967 13.0827C25.7698 13.0827 25.5816 13.1604 25.4423 13.3003L19.8238 18.9112C19.7431 18.9904 19.6126 18.9904 19.5326 18.9112L18.7753 18.1549C18.6953 18.0742 18.6953 17.9439 18.7753 17.864L24.3937 12.2531C24.6835 11.9637 24.6835 11.4961 24.3937 11.2067L21.7742 8.58996L22.8221 7.54356L25.4423 10.1603C25.7202 10.4378 26.2122 10.4378 26.4901 10.1603L27.5379 9.11312L38.5414 20.1025L37.3594 21.2828Z" fill="#21B82F"/>
<path d="M18.1067 22.7178L16.535 21.1475C16.246 20.8581 15.7769 20.8581 15.4872 21.1475C15.1974 21.4368 15.1974 21.9045 15.4872 22.1939L17.0588 23.7642C17.2034 23.9085 17.393 23.9811 17.5827 23.9811C17.7724 23.9811 17.9621 23.9085 18.1066 23.7642C18.3964 23.4749 18.3964 23.0072 18.1067 22.7178Z" fill="#21B82F"/>
<path d="M15.4864 25.334L13.9147 23.7644C13.6249 23.475 13.1559 23.475 12.8669 23.7644C12.5771 24.0538 12.5771 24.5214 12.8669 24.8108L14.4385 26.3804C14.583 26.5246 14.7727 26.5971 14.9624 26.5971C15.1522 26.5971 15.3418 26.5246 15.4863 26.3804C15.7761 26.091 15.7761 25.6233 15.4864 25.334Z" fill="#21B82F"/>
<path d="M12.8668 27.9509L11.2951 26.3813C11.0054 26.092 10.5363 26.092 10.2473 26.3813C9.95756 26.6707 9.95756 27.1384 10.2473 27.4277L11.819 28.9973C11.9635 29.1416 12.1532 29.2141 12.3429 29.2141C12.5325 29.2141 12.7223 29.1416 12.8667 28.9973C13.1566 28.7079 13.1566 28.2402 12.8668 27.9509Z" fill="#21B82F"/>
<path d="M10.2465 30.5671L8.67487 28.9976C8.38587 28.7082 7.91606 28.7082 7.62706 28.9976C7.33729 29.2869 7.33729 29.7546 7.62706 30.044L9.19874 31.6135C9.34319 31.7579 9.53294 31.8304 9.7226 31.8304C9.91226 31.8304 10.102 31.7586 10.2465 31.6135C10.5363 31.3241 10.5363 30.8565 10.2465 30.5671Z" fill="#21B82F"/>
<path d="M7.62744 33.1836L6.05576 31.6133C5.76676 31.3239 5.29772 31.3239 5.00795 31.6133C4.71818 31.9027 4.71818 32.3703 5.00795 32.6597L6.57963 34.23C6.72417 34.3744 6.91383 34.4469 7.10349 34.4469C7.29315 34.4469 7.48212 34.3744 7.62735 34.23C7.91713 33.9406 7.91713 33.473 7.62744 33.1836Z" fill="#21B82F"/>
<path d="M5.00714 35.7996L3.43546 34.2292C3.14646 33.9399 2.67742 33.9399 2.38765 34.2292C2.09787 34.5186 2.09787 34.9863 2.38765 35.2756L3.95933 36.846C4.10387 36.9903 4.29353 37.0628 4.48319 37.0628C4.67285 37.0628 4.86259 36.9911 5.00705 36.846C5.29683 36.5567 5.29683 36.089 5.00714 35.7996Z" fill="#21B82F"/>
<path d="M29.1111 16.9613C29.2504 16.8229 29.3281 16.6342 29.3281 16.4381C29.3281 16.242 29.2504 16.0541 29.1111 15.915L26.4908 13.2982C26.2129 13.0207 25.7209 13.0207 25.443 13.2982L19.8245 18.9092C19.7445 18.989 19.6133 18.9898 19.5333 18.9099L19.1547 18.5318C19.0161 18.3927 18.8272 18.315 18.6308 18.315C18.4344 18.315 18.2462 18.3927 18.1069 18.5318L0.533531 36.0814C-0.177844 36.7918 -0.177844 37.9477 0.533531 38.6574L3.71693 41.8373C4.07262 42.1925 4.5395 42.3702 5.00708 42.3702C5.47466 42.3702 5.94154 42.1925 6.29723 41.8373L23.8713 24.2876C24.0106 24.1492 24.0885 23.9612 24.0885 23.7644C24.0885 23.5675 24.0107 23.3796 23.8713 23.2405L23.4927 22.863C23.4127 22.7831 23.4127 22.6521 23.4927 22.5722L29.1111 16.9613ZM22.4441 21.5258C21.8357 22.1341 21.7905 23.0947 22.3077 23.7555L5.24933 40.7909C5.11596 40.9234 4.8988 40.9241 4.76543 40.7909L1.58126 37.611C1.44789 37.4778 1.44789 37.261 1.58126 37.1278L18.6396 20.0924C19.3007 20.6089 20.2632 20.563 20.8723 19.9555L25.9669 14.8678L27.5385 16.4381L22.4441 21.5258Z" fill="#21B82F"/>
<path d="M21.2509 14.3455L19.1553 12.2527C18.8655 11.9633 18.3965 11.9633 18.1075 12.2527C17.8177 12.5421 17.8177 13.0097 18.1075 13.2991L20.2031 15.3919C20.3476 15.5362 20.5373 15.6088 20.727 15.6088C20.9159 15.6088 21.1056 15.5362 21.2508 15.3919C21.5406 15.1025 21.5406 14.6348 21.2509 14.3455Z" fill="#21B82F"/>
<path d="M20.2025 11.2056C19.9127 10.9162 19.4437 10.9162 19.1547 11.2056L17.0591 13.2991C16.7693 13.5885 16.7693 14.0562 17.0591 14.3455C17.2036 14.4898 17.3933 14.5623 17.5829 14.5623C17.7726 14.5623 17.9623 14.4898 18.1068 14.3455L20.2024 12.252C20.4923 11.9627 20.4923 11.4949 20.2025 11.2056Z" fill="#21B82F"/>
</svg>
