<svg width="20" height="20" viewBox="0 0 20 20" fill="none" xmlns="http://www.w3.org/2000/svg">
<path d="M9.51155 0.012578C4.18559 0.263087 -0.0160023 4.66203 4.58185e-05 9.94979C0.00268432 11.5062 0.375695 13.0398 1.08831 14.4239L0.0271269 19.5353C0.0141791 19.5992 0.0175695 19.6653 0.0369843 19.7276C0.0563992 19.7898 0.0912116 19.8462 0.138203 19.8914C0.185194 19.9367 0.242847 19.9694 0.30583 19.9864C0.368813 20.0035 0.435092 20.0045 0.49854 19.9892L5.54767 18.8028C6.88496 19.463 8.35303 19.8163 9.84455 19.8369C15.2879 19.9201 19.8255 15.6333 19.995 10.2374C20.1775 4.4506 15.3641 -0.264987 9.51155 0.0115758V0.012578ZM15.5366 15.4109C14.8089 16.1353 13.9453 16.7091 12.9952 17.0994C12.0451 17.4897 11.0273 17.6889 10 17.6855C8.79141 17.6892 7.5985 17.412 6.51557 16.8759L5.81247 16.5282L2.71619 17.2556L3.36814 14.1183L3.0211 13.4449C2.45851 12.3554 2.16678 11.1466 2.17055 9.92073C2.17055 7.84651 2.98499 5.89554 4.46342 4.42956C5.93704 2.9723 7.92655 2.15457 10 2.15393C12.0923 2.15393 14.0582 2.96157 15.5366 4.42856C16.265 5.14565 16.843 6.0006 17.2369 6.94344C17.6307 7.88627 17.8325 8.89808 17.8305 9.91972C17.8305 11.9759 17.003 13.9579 15.5366 15.4119V15.4109Z" fill="#21B82F"/>
<path d="M14.8537 12.0702L12.9169 11.5191C12.7919 11.4832 12.6596 11.4816 12.5338 11.5144C12.408 11.5472 12.2933 11.6132 12.2018 11.7055L11.7284 12.1844C11.6304 12.2836 11.5054 12.3516 11.3689 12.3801C11.2324 12.4087 11.0906 12.3964 10.9611 12.3448C10.0453 11.977 8.11753 10.2776 7.62505 9.42683C7.55602 9.30667 7.52448 9.16865 7.53449 9.03046C7.5445 8.89228 7.59559 8.76023 7.68122 8.65125L8.09446 8.12017C8.17401 8.01842 8.22435 7.89695 8.24008 7.7688C8.2558 7.64064 8.23632 7.51063 8.18373 7.39269L7.36929 5.56497C7.32322 5.46282 7.25407 5.37273 7.16726 5.30178C7.08046 5.23084 6.97836 5.18098 6.86901 5.15612C6.75965 5.13126 6.64601 5.13208 6.53703 5.15851C6.42804 5.18494 6.32668 5.23627 6.2409 5.30845C5.70028 5.76237 5.05836 6.45077 4.98113 7.21533C4.84372 8.56107 5.42546 10.2575 7.62606 12.2957C10.1687 14.6494 12.2058 14.9611 13.5308 14.6414C14.283 14.4611 14.8848 13.7366 15.2629 13.1444C15.3234 13.0503 15.361 12.9434 15.3725 12.8322C15.3841 12.721 15.3694 12.6086 15.3296 12.5042C15.2898 12.3997 15.226 12.306 15.1433 12.2306C15.0607 12.1552 14.9615 12.1003 14.8537 12.0702Z" fill="#21B82F"/>
</svg>
