<svg width="100" height="100" viewBox="0 0 100 100" fill="none" xmlns="http://www.w3.org/2000/svg">
<path d="M24.9915 49.9828C31.3933 49.9822 37.7974 47.5452 42.6712 42.6714C50.1122 35.2306 52.0976 23.8391 47.6118 14.3251C47.1517 13.3492 45.9877 12.9314 45.0119 13.3914C44.0362 13.8514 43.618 15.0154 44.0782 15.9913C47.8632 24.0188 46.1876 33.6306 39.9086 39.909C31.6832 48.1343 18.2997 48.1343 10.0744 39.909C1.84905 31.6837 1.84905 18.3002 10.0744 10.0748C16.3118 3.83704 25.8763 2.13958 33.8749 5.85054C34.8541 6.3047 36.0152 5.87906 36.4689 4.90083C36.9229 3.9222 36.4976 2.76075 35.5192 2.30679C26.0392 -2.09136 14.704 -0.0798031 7.31196 7.31223C-2.43659 17.0608 -2.43659 32.9229 7.31196 42.6716C12.1869 47.5464 18.588 49.9836 24.9915 49.9828Z" fill="#21B82F"/>
<path d="M39.9469 26.9641H41.3658C42.4445 26.9641 43.3192 26.0894 43.3192 25.0107C43.3192 23.9321 42.4445 23.0574 41.3658 23.0574H39.9469C38.8683 23.0574 37.9936 23.9321 37.9936 25.0107C37.9936 26.0894 38.8681 26.9641 39.9469 26.9641Z" fill="#21B82F"/>
<path d="M8.61838 23.0199C7.53975 23.0199 6.66504 23.8946 6.66504 24.9732C6.66504 26.0519 7.53975 26.9266 8.61838 26.9266H10.0373C11.1159 26.9266 11.9906 26.0519 11.9906 24.9732C11.9906 23.8946 11.1159 23.0199 10.0373 23.0199H8.61838Z" fill="#21B82F"/>
<path d="M23.02 39.9471V41.366C23.02 42.4447 23.8947 43.3194 24.9734 43.3194C26.052 43.3194 26.9267 42.4447 26.9267 41.366V39.9471C26.9267 38.8685 26.052 37.9938 24.9734 37.9938C23.8947 37.9938 23.02 38.8683 23.02 39.9471Z" fill="#21B82F"/>
<path d="M26.964 10.104C26.9654 9.02512 26.0919 8.14944 25.0132 8.14807C25.0122 8.14807 25.0115 8.14807 25.0107 8.14807C23.9328 8.14807 23.0587 9.02102 23.0573 10.0989L23.0398 24.0055L17.3915 28.1804C16.524 28.8217 16.3406 30.0448 16.9817 30.9123C17.3647 31.4305 17.9554 31.7048 18.5541 31.7048C18.9575 31.7048 19.3644 31.5802 19.7138 31.3221L26.1532 26.5626C26.6507 26.1948 26.9447 25.6131 26.9455 24.9943L26.964 10.104Z" fill="#21B82F"/>
<path d="M41.2909 10.6466C41.8047 10.6466 42.3086 10.4377 42.6719 10.0742C43.0353 9.71071 43.2443 9.20694 43.2443 8.69321C43.2443 8.17948 43.0355 7.67552 42.6719 7.31239C42.3086 6.94907 41.8047 6.73987 41.2909 6.73987C40.7772 6.73987 40.2732 6.94888 39.9101 7.31239C39.5468 7.67552 39.3376 8.17948 39.3376 8.69321C39.3376 9.20694 39.5466 9.7109 39.9101 10.0742C40.2732 10.4375 40.7772 10.6466 41.2909 10.6466Z" fill="#21B82F"/>
<path d="M81.8706 67.1844L76.4153 60.1183C72.2061 54.6664 65.5809 51.4115 58.6929 51.4115H38.7821C29.793 51.4115 21.7346 56.7666 18.252 65.0542L17.2082 67.5389C17.157 67.5764 17.1072 67.616 17.0597 67.6586L12.041 72.149H1.95334C0.874707 72.149 0 73.0237 0 74.1023C0 75.1809 0.874707 76.0556 1.95334 76.0556H10.652V81.858H7.2219C6.14326 81.858 5.26856 82.7328 5.26856 83.8114C5.26856 84.89 6.14326 85.7647 7.2219 85.7647H10.652V90.929C10.652 92.0076 11.5267 92.8823 12.6053 92.8823H19.2006C20.0966 96.948 23.7263 100 28.0574 100C32.3886 100 36.0183 96.948 36.9145 92.8823H59.794C60.8726 92.8823 61.7473 92.0076 61.7473 90.929C61.7473 89.8503 60.8726 88.9756 59.794 88.9756H49.7733V71.0674H80.9282C81.8185 71.0674 82.6897 71.1489 83.5382 71.2969V74.8006C83.5382 77.9441 86.0955 80.5015 89.239 80.5015H94.9653C95.6903 82.271 96.0933 84.2054 96.0933 86.233V88.9758H91.4514C90.5554 84.9102 86.9257 81.8582 82.5946 81.8582C77.5928 81.8582 73.5234 85.9275 73.5234 90.9292C73.5234 95.9309 77.5928 100 82.5946 100C86.9257 100 90.5554 96.9482 91.4514 92.8825H98.0467C99.1253 92.8825 100 92.0078 100 90.9292V86.233C100 76.0324 91.9511 67.6772 81.8706 67.1844ZM82.5949 96.0936C79.7472 96.0936 77.4305 93.777 77.4305 90.9292C77.4305 88.0816 79.7472 85.7649 82.5949 85.7649C85.4425 85.7649 87.7592 88.0816 87.7592 90.9292C87.7592 93.777 85.4425 96.0936 82.5949 96.0936ZM38.7821 55.3182H45.867V67.1609H21.6046L21.8538 66.5675C24.7254 59.7337 31.3701 55.3182 38.7821 55.3182ZM18.5423 71.5741V75.5835C18.5423 76.9538 17.4277 78.0684 16.0575 78.0684H14.5587V75.1384L18.5423 71.5741ZM28.0576 96.0936C25.21 96.0936 22.8934 93.777 22.8934 90.9292C22.8934 88.0816 25.21 85.7649 28.0576 85.7649C30.9054 85.7649 33.2221 88.0816 33.2221 90.9292C33.2221 93.777 30.9054 96.0936 28.0576 96.0936ZM45.867 88.9758H36.9147C36.0185 84.9102 32.3888 81.8582 28.0576 81.8582C23.7265 81.8582 20.0968 84.9102 19.2008 88.9758H14.5587V81.9751H16.0575C19.5817 81.9751 22.449 79.1077 22.449 75.5835V71.0676H45.867V88.9758ZM49.7737 55.3182H58.6931C64.379 55.3182 69.8484 58.0052 73.3232 62.5059L76.9172 67.1609H49.7737V55.3182ZM89.2392 76.5948C88.2501 76.5948 87.4451 75.79 87.4451 74.8006V72.5416C89.4561 73.5026 91.2242 74.893 92.6285 76.5946H89.2392V76.5948Z" fill="#21B82F"/>
<path d="M54.0391 74.4324C52.9605 74.4324 52.0858 75.3071 52.0858 76.3857C52.0858 77.4644 52.9605 78.3391 54.0391 78.3391H57.3215C58.4001 78.3391 59.2748 77.4644 59.2748 76.3857C59.2748 75.3071 58.4001 74.4324 57.3215 74.4324H54.0391Z" fill="#21B82F"/>
<path d="M67.6081 88.9756C67.0922 88.9756 66.5904 89.1846 66.2251 89.5481C65.8618 89.9112 65.6547 90.4152 65.6547 90.9289C65.6547 91.4427 65.8618 91.9466 66.2251 92.3099C66.5904 92.6733 67.0922 92.8823 67.6081 92.8823C68.1218 92.8823 68.6258 92.6735 68.9891 92.3099C69.3522 91.9466 69.5614 91.4427 69.5614 90.9289C69.5614 90.4152 69.3524 89.9112 68.9891 89.5481C68.6258 89.1846 68.1218 88.9756 67.6081 88.9756Z" fill="#21B82F"/>
</svg>
