<svg width="40" height="40" viewBox="0 0 40 40" fill="none" xmlns="http://www.w3.org/2000/svg">
<path d="M7.86849 36.3674C7.50655 36.3674 7.21281 36.6611 7.21281 37.0231V38.6887H1.31112V34.0985C1.31112 33.7366 1.01738 33.4429 0.655436 33.4429C0.293496 33.4429 -0.000244141 33.7366 -0.000244141 34.0985V39.3446C-0.000244141 39.7065 0.293496 40.0002 0.655436 40.0002H7.86849C8.23043 40.0002 8.52417 39.7065 8.52417 39.3446V37.0233C8.52417 36.6613 8.23043 36.3674 7.86849 36.3674Z" fill="#21B82F"/>
<path d="M38.6884 33.4429C38.3265 33.4429 38.0328 33.7366 38.0328 34.0985V38.6887H32.1311V36.9526C32.1311 36.5906 31.8373 36.2969 31.4754 36.2969C31.1134 36.2969 30.8197 36.5906 30.8197 36.9526V39.3444C30.8197 39.7063 31.1134 40.0001 31.4754 40.0001H38.6886C39.0506 40.0001 39.3443 39.7063 39.3443 39.3444V34.0984C39.3441 33.7366 39.0504 33.4429 38.6884 33.4429Z" fill="#21B82F"/>
<path d="M13.4286 36.0656H3.62396C2.34891 36.0656 1.31112 35.0282 1.31112 33.7528V28.1967C1.31112 27.8348 1.01738 27.541 0.655436 27.541C0.293496 27.541 -0.000244141 27.8348 -0.000244141 28.1967V33.7528C-0.000244141 35.7511 1.6256 37.3772 3.62396 37.3772H13.4286C13.7905 37.3772 14.0843 37.0834 14.0843 36.7215C14.0843 36.3594 13.7905 36.0656 13.4286 36.0656Z" fill="#21B82F"/>
<path d="M38.6885 27.541C38.3265 27.541 38.0328 27.8348 38.0328 28.1967V33.7528C38.0328 35.0282 36.9954 36.0656 35.72 36.0656H25.2425C24.8806 36.0656 24.5869 36.3594 24.5869 36.7213C24.5869 37.0832 24.8806 37.377 25.2425 37.377H35.72C37.7183 37.377 39.3443 35.7511 39.3443 33.7526V28.1965C39.3442 27.8348 39.0504 27.541 38.6885 27.541Z" fill="#21B82F"/>
<path d="M35.1495 20.4267L34.8571 18.3798C34.8279 18.1758 34.7895 17.9719 34.7426 17.7729C34.6596 17.4202 34.3052 17.2008 33.9544 17.2844C33.6018 17.3674 33.3832 17.7201 33.4662 18.0726C33.5039 18.234 33.535 18.3996 33.5586 18.565L33.851 20.6121C33.8979 20.9391 34.1786 21.175 34.4996 21.175C34.5303 21.175 34.5616 21.1727 34.5929 21.1685C34.9514 21.1172 35.2006 20.7854 35.1495 20.4267Z" fill="#21B82F"/>
<path d="M22.2948 12.4592H11.3129C7.90367 12.4592 4.96915 15.0045 4.48733 18.3794L4.169 20.6065C4.11751 20.9652 4.36668 21.2974 4.72536 21.3485C4.75686 21.3531 4.78799 21.3554 4.81872 21.3554C5.13974 21.3554 5.42042 21.1193 5.46691 20.7925L5.78524 18.5653C6.17561 15.8318 8.55204 13.7708 11.3129 13.7708H22.295C22.6569 13.7708 22.9507 13.477 22.9507 13.1151C22.9507 12.7532 22.6569 12.4592 22.2948 12.4592Z" fill="#21B82F"/>
<path d="M36.5181 22.3799C35.9191 21.791 35.459 21.0848 35.1508 20.2801C35.0732 20.0772 34.8999 19.926 34.6886 19.8761C34.4775 19.8273 34.2548 19.8849 34.0948 20.0319C32.9673 21.0689 31.5086 21.6398 29.9878 21.6398H9.35666C7.8359 21.6398 6.37738 21.0691 5.24949 20.0319C5.08946 19.8847 4.86757 19.8269 4.65548 19.8761C4.44396 19.9258 4.27087 20.077 4.19326 20.2801C3.8853 21.0846 3.42577 21.7908 2.82638 22.3799C0.957893 24.2153 -0.0455106 26.6693 0.00174904 29.2903C0.0492008 31.9415 2.28308 34.0985 4.98149 34.0985H34.3632C37.0616 34.0985 39.2953 31.9415 39.3433 29.2903C39.39 26.6693 38.3868 24.2155 36.5181 22.3799ZM34.3624 32.7872H4.98073C2.99275 32.7872 1.34692 31.2082 1.31253 29.2665C1.27219 27.0098 2.13573 24.896 3.74506 23.3153C4.26972 22.7994 4.70697 22.2114 5.05104 21.5595C6.30323 22.4619 7.80247 22.951 9.35609 22.9514H29.9874C31.5408 22.9514 33.0405 22.4623 34.2927 21.5599C34.6365 22.2118 35.0736 22.8 35.5986 23.3156C37.2076 24.8963 38.0715 27.0098 38.0312 29.2669C37.9962 31.208 36.3502 32.7872 34.3624 32.7872Z" fill="#21B82F"/>
<path d="M10.9553 15.2743C10.6996 15.0183 10.2839 15.0183 10.0282 15.2743L8.06096 17.2416C7.80488 17.4977 7.80488 17.9128 8.06096 18.1687C8.18891 18.2968 8.35662 18.3608 8.52453 18.3608C8.69243 18.3608 8.86034 18.2968 8.9881 18.1687L10.9553 16.2015C11.2112 15.9454 11.2112 15.5304 10.9553 15.2743Z" fill="#21B82F"/>
<path d="M14.2339 14.6186C13.9782 14.3625 13.5625 14.3625 13.3068 14.6186L8.38869 19.5367C8.1326 19.7927 8.1326 20.2079 8.38869 20.4638C8.51664 20.5919 8.68435 20.6559 8.85226 20.6559C9.02016 20.6559 9.18807 20.5919 9.31582 20.4638L14.2339 15.5457C14.49 15.2898 14.49 14.8747 14.2339 14.6186Z" fill="#21B82F"/>
<path d="M26.8852 17.7053C24.3541 17.7053 22.295 19.7644 22.295 22.2955C22.295 22.6574 22.5888 22.9511 22.9507 22.9511C23.3127 22.9511 23.6064 22.6574 23.6064 22.2955C23.6064 20.4875 25.0772 19.0167 26.8852 19.0167C28.6932 19.0167 30.164 20.4875 30.164 22.2955C30.164 22.6574 30.4577 22.9511 30.8196 22.9511C31.1816 22.9511 31.4753 22.6574 31.4753 22.2955C31.4753 19.7644 29.4163 17.7053 26.8852 17.7053Z" fill="#21B82F"/>
<path d="M7.86864 27.541H2.62263C2.26069 27.541 1.96695 27.8348 1.96695 28.1967V29.5082C1.96695 30.5931 2.84932 31.4755 3.93418 31.4755H7.86864C8.9535 31.4755 9.83587 30.5931 9.83587 29.5082C9.83587 28.4234 8.9535 27.541 7.86864 27.541ZM7.86864 30.1639H3.93418C3.57263 30.1639 3.2785 29.8698 3.2785 29.5082V28.8526H7.86864C8.2302 28.8526 8.52432 29.1467 8.52432 29.5082C8.52432 29.8698 8.2302 30.1639 7.86864 30.1639Z" fill="#21B82F"/>
<path d="M36.7212 27.541H31.4752C30.3903 27.541 29.5079 28.4234 29.5079 29.5082C29.5079 30.5931 30.3903 31.4755 31.4752 31.4755H35.4096C36.4945 31.4755 37.3769 30.5931 37.3769 29.5082V28.1967C37.3769 27.8348 37.0831 27.541 36.7212 27.541ZM36.0653 29.5082C36.0653 29.8698 35.7712 30.1639 35.4096 30.1639H31.4752C31.1136 30.1639 30.8195 29.8698 30.8195 29.5082C30.8195 29.1467 31.1136 28.8526 31.4752 28.8526H36.0653V29.5082Z" fill="#21B82F"/>
<path d="M24.918 32.7874H13.7703C13.4084 32.7874 13.1146 33.0811 13.1146 33.443V37.3775C13.1146 37.7394 13.4084 38.0332 13.7703 38.0332H24.918C25.28 38.0332 25.5737 37.7394 25.5737 37.3775V33.443C25.5737 33.0811 25.28 32.7874 24.918 32.7874ZM24.2621 36.7218H14.426V34.0989H24.2621V36.7218Z" fill="#21B82F"/>
<path d="M25.9015 26.8857H13.4422C12.1766 26.8857 11.147 27.9157 11.147 29.1809C11.147 30.4462 12.1766 31.4761 13.4422 31.4761H25.9013C27.1669 31.4761 28.1964 30.4462 28.1964 29.1809C28.1964 27.9157 27.1669 26.8857 25.9015 26.8857ZM25.9015 30.1643H13.4422C12.8999 30.1643 12.4586 29.7231 12.4586 29.1807C12.4586 28.6384 12.8999 28.1971 13.4422 28.1971H25.9013C26.4436 28.1971 26.8849 28.6384 26.8849 29.1807C26.8851 29.7231 26.4438 30.1643 25.9015 30.1643Z" fill="#21B82F"/>
<path d="M15.7375 26.8857C15.3755 26.8857 15.0818 27.1795 15.0818 27.5414V30.8202C15.0818 31.1821 15.3755 31.4759 15.7375 31.4759C16.0994 31.4759 16.3931 31.1821 16.3931 30.8202V27.5414C16.3931 27.1795 16.0994 26.8857 15.7375 26.8857Z" fill="#21B82F"/>
<path d="M19.6722 26.8857C19.3103 26.8857 19.0165 27.1795 19.0165 27.5414V30.8202C19.0165 31.1821 19.3103 31.4759 19.6722 31.4759C20.0342 31.4759 20.3279 31.1821 20.3279 30.8202V27.5414C20.3279 27.1795 20.0342 26.8857 19.6722 26.8857Z" fill="#21B82F"/>
<path d="M23.6062 26.8857C23.2443 26.8857 22.9506 27.1795 22.9506 27.5414V30.8202C22.9506 31.1821 23.2443 31.4759 23.6062 31.4759C23.9682 31.4759 24.2619 31.1821 24.2619 30.8202V27.5414C24.2619 27.1795 23.9682 26.8857 23.6062 26.8857Z" fill="#21B82F"/>
<path d="M30.4916 0C25.2486 0 20.9833 4.26566 20.9833 9.50822C20.9833 14.7508 25.2486 19.0164 30.4916 19.0164C35.7345 19.0164 39.9998 14.7508 39.9998 9.50822C39.9998 4.26566 35.7345 0 30.4916 0ZM30.4916 17.7051C25.9719 17.7051 22.2947 14.028 22.2947 9.50822C22.2947 4.98858 25.9717 1.31136 30.4916 1.31136C35.0114 1.31136 38.6884 4.98839 38.6884 9.50822C38.6884 14.028 35.0112 17.7051 30.4916 17.7051Z" fill="#21B82F"/>
<path d="M33.2207 5.96792C32.6699 5.47227 31.8023 5.19678 30.6183 5.19678C29.6543 5.19678 28.8974 5.27881 28.3189 5.37544H28.3195V14.545H29.5171V10.8276C29.7922 10.8962 30.1227 10.9102 30.4807 10.9102C31.6509 10.9102 32.6833 10.5659 33.3169 9.89143C33.7851 9.40923 34.0329 8.74855 34.0329 7.90883C34.0331 7.08274 33.7301 6.40862 33.2207 5.96792ZM30.5078 9.94676C30.1088 9.94676 29.7784 9.91928 29.5167 9.85012V6.24341C29.7233 6.18827 30.1223 6.14677 30.6456 6.14677C31.9673 6.14677 32.8347 6.73925 32.8347 7.96416C32.8347 9.24401 31.9533 9.94676 30.5078 9.94676Z" fill="#21B82F"/>
</svg>
