<svg width="20" height="15" viewBox="0 0 20 15" fill="none" xmlns="http://www.w3.org/2000/svg">
<path d="M19.5307 4.375H17.1921L16.5421 2.75C15.8741 1.0793 14.28 0 12.4803 0H7.5194C5.72018 0 4.12564 1.0793 3.45728 2.75L2.80728 4.375H0.468999C0.163921 4.375 -0.0599078 4.66172 0.0143111 4.95742L0.248686 5.89492C0.30064 6.10352 0.48814 6.25 0.703375 6.25H1.48736C0.96275 6.7082 0.624859 7.37422 0.624859 8.125V10C0.624859 10.6297 0.865484 11.198 1.24986 11.6379V13.75C1.24986 14.4402 1.80963 15 2.49986 15H3.74986C4.4401 15 4.99986 14.4402 4.99986 13.75V12.5H14.9999V13.75C14.9999 14.4402 15.5596 15 16.2499 15H17.4999C18.1901 15 18.7499 14.4402 18.7499 13.75V11.6379C19.1343 11.1984 19.3749 10.6301 19.3749 10V8.125C19.3749 7.37422 19.037 6.7082 18.5128 6.25H19.2968C19.512 6.25 19.6995 6.10352 19.7514 5.89492L19.9858 4.95742C20.0597 4.66172 19.8358 4.375 19.5307 4.375ZM5.77838 3.67852C6.06315 2.9668 6.7526 2.5 7.5194 2.5H12.4803C13.2471 2.5 13.9366 2.9668 14.2214 3.67852L14.9999 5.625H4.99986L5.77838 3.67852ZM3.74986 9.99219C2.99986 9.99219 2.49986 9.49375 2.49986 8.74609C2.49986 7.99844 2.99986 7.5 3.74986 7.5C4.49986 7.5 5.62487 8.62148 5.62487 9.36914C5.62487 10.1168 4.49986 9.99219 3.74986 9.99219ZM16.2499 9.99219C15.4999 9.99219 14.3749 10.1168 14.3749 9.36914C14.3749 8.62148 15.4999 7.5 16.2499 7.5C16.9999 7.5 17.4999 7.99844 17.4999 8.74609C17.4999 9.49375 16.9999 9.99219 16.2499 9.99219Z" fill="#21B82F"/>
</svg>
