<svg width="40" height="44" viewBox="0 0 40 44" fill="none" xmlns="http://www.w3.org/2000/svg">
<path d="M38.246 10.2576H36.6567C36.648 10.2077 36.6384 10.157 36.6289 10.1072C36.104 7.34866 34.893 4.9553 33.1249 3.18765C31.1487 1.2128 28.5331 0.111169 25.5602 0.00202851C25.2774 -0.008284 24.9208 0.012341 24.6597 0.264998C24.3907 0.525388 24.396 0.857107 24.3995 1.05476V8.95054C24.3995 9.30632 24.6909 9.59507 25.0501 9.59507C25.4101 9.59507 25.7008 9.30632 25.7008 8.95054V1.29865C31.5601 1.60459 34.5123 6.09389 35.3321 10.2575C35.3381 10.2867 35.3442 10.3168 35.3494 10.346C35.424 10.7396 35.4822 11.1409 35.5247 11.5465C35.6297 12.5615 35.6297 13.6065 35.5212 14.6454C35.4761 15.0776 35.4119 15.5082 35.3286 15.9344C34.7328 18.9899 33.1478 21.8407 30.4337 23.4852C30.4338 23.4754 30.4344 23.4657 30.4344 23.4558C30.4344 21.4335 28.7725 19.7883 26.7297 19.7883C26.3727 19.7883 26.0278 19.8396 25.7009 19.9334V11.9659C25.7009 11.6101 25.4102 11.3214 25.0502 11.3214C24.6911 11.3214 24.3996 11.6101 24.3996 11.9659V20.6085C24.0789 20.8665 23.8029 21.1768 23.5839 21.5256H22.7991V19.5863C22.7991 18.2757 21.7216 17.2094 20.3971 17.2094H6.48659C5.16355 17.2094 4.0872 18.2757 4.0872 19.5863V21.5256H1.1829C1.15357 21.5256 1.12555 21.5252 1.09882 21.5247C0.878171 21.5212 0.544202 21.5163 0.275915 21.7871C0.0156116 22.05 -0.00868354 22.4025 0.00198891 22.7152C0.0528349 24.0419 0.288844 25.3071 0.703507 26.4754C0.797564 26.7406 1.04884 26.9064 1.3173 26.9064C1.38889 26.9064 1.46177 26.8946 1.5331 26.8698C1.87218 26.7517 2.05032 26.3838 1.9311 26.048C1.57483 25.0442 1.36572 23.9565 1.3088 22.8148H23.084C23.0468 23.023 23.0271 23.2372 23.0271 23.4559C23.0271 25.2929 24.3957 26.8188 26.1751 27.0847C24.5231 30.4544 20.9879 32.7899 16.5249 33.4029C11.1813 34.1367 5.99869 32.2749 3.32164 28.6593C3.10906 28.3722 2.70177 28.3104 2.41214 28.5208C2.12242 28.7313 2.05978 29.1346 2.27227 29.4216C3.26012 30.7558 4.55149 31.8734 6.04858 32.742L1.67592 40.6104C1.06429 41.7154 1.47323 43.1094 2.5888 43.7186C2.94012 43.9095 3.32025 44 3.6957 44C4.51192 44 5.30516 43.5716 5.72624 42.8153L6.76642 40.9429H22.0407L23.0482 42.7565C23.3453 43.2903 23.8359 43.6781 24.4298 43.8485C24.6439 43.9099 24.862 43.9404 25.0785 43.9404C25.4625 43.9404 25.8415 43.8447 26.1852 43.6569C26.7244 43.3642 27.1163 42.879 27.2886 42.2911C27.4612 41.7025 27.3924 41.0841 27.0952 40.5503L22.6934 32.6235C24.9472 31.2631 26.6696 29.3388 27.6334 27.0131C28.6605 26.7566 29.519 26.076 30.0043 25.1691C33.8122 23.4327 35.9499 19.8026 36.6462 15.9345H38.2459C39.2132 15.9345 40 15.1551 40 14.1969V11.9952C40.0001 11.0369 39.2133 10.2576 38.246 10.2576ZM21.4977 21.5256H5.38845V19.5863C5.38845 18.9865 5.88112 18.4985 6.48659 18.4985H9.04989L8.87921 19.3003C8.80511 19.6486 9.03002 19.9905 9.3816 20.0639C9.42689 20.0734 9.47201 20.0779 9.51652 20.0779C9.81752 20.0779 10.0879 19.8697 10.1525 19.5662L10.3799 18.4984H12.6222L12.4515 19.3002C12.3774 19.6485 12.6023 19.9904 12.9539 20.0638C12.9992 20.0733 13.0443 20.0778 13.0888 20.0778C13.3898 20.0778 13.6602 19.8696 13.7249 19.5661L13.9522 18.4983H16.1049L15.9342 19.3001C15.8601 19.6484 16.085 19.9903 16.4366 20.0637C16.4819 20.0732 16.527 20.0777 16.5715 20.0777C16.8725 20.0777 17.1429 19.8695 17.2075 19.5661L17.4349 18.4982H20.3972C21.0042 18.4982 21.4979 18.9862 21.4979 19.5861V21.5256H21.4977ZM4.58655 42.1932C4.31774 42.676 3.70238 42.8532 3.21587 42.589C2.72858 42.3228 2.54976 41.7131 2.81657 41.2309L7.20008 33.3431C7.20086 33.343 7.20164 33.343 7.20251 33.343C7.80902 33.6253 8.44173 33.8701 9.09605 34.0756L4.58655 42.1932ZM7.4826 39.6537L10.3881 34.4235C11.6213 34.7025 12.9125 34.8491 14.2318 34.8491C15.0475 34.8491 15.8746 34.7935 16.7039 34.6796C17.279 34.6006 17.8396 34.4936 18.3855 34.3628L21.3248 39.6537H7.4826ZM25.9554 41.1721C26.0848 41.4045 26.1144 41.6743 26.039 41.9316C25.9637 42.1883 25.7935 42.3996 25.5583 42.5274C25.324 42.6554 25.0517 42.6848 24.7918 42.6102C24.5318 42.5356 24.3172 42.3665 24.1881 42.1344L19.6705 34.002C19.6713 34.0007 19.6724 33.9995 19.6732 33.9982C20.3251 33.7842 20.9509 33.5328 21.5463 33.2448C21.5489 33.2453 21.5516 33.2457 21.5543 33.2462L25.9554 41.1721ZM26.7295 25.8368C25.4056 25.8368 24.3285 24.7687 24.3285 23.4558C24.3285 22.1443 25.4056 21.0773 26.7295 21.0773C28.0548 21.0773 29.133 22.1443 29.133 23.4558C29.133 24.7686 28.0547 25.8368 26.7295 25.8368ZM38.6988 14.1969C38.6988 14.4444 38.4958 14.6454 38.246 14.6454H36.825C36.9265 13.6056 36.9274 12.5623 36.8319 11.5466H38.246C38.4958 11.5466 38.6988 11.7486 38.6988 11.9952V14.1969Z" fill="#21B82F"/>
</svg>
