<svg width="15" height="16" viewBox="0 0 15 16" fill="none" xmlns="http://www.w3.org/2000/svg">
<path d="M8.42119 5.05256C10.1921 5.05256 10.9475 5.80792 10.9475 7.57884H12.6317C12.6317 4.86309 11.1369 3.36837 8.42119 3.36837V5.05256ZM11.3028 9.63608C11.141 9.48901 10.9284 9.41057 10.7098 9.41733C10.4913 9.42409 10.2839 9.51551 10.1315 9.67229L8.11635 11.7447C7.6313 11.6521 6.65616 11.3481 5.65238 10.3468C4.6486 9.34219 4.34461 8.36452 4.2545 7.88284L6.32521 5.86686C6.48219 5.71455 6.57374 5.50714 6.5805 5.28852C6.58726 5.0699 6.50869 4.85723 6.36142 4.69551L3.24988 1.27408C3.10255 1.11185 2.89778 1.01345 2.67907 0.999774C2.46036 0.986095 2.24492 1.05821 2.07853 1.20082L0.251182 2.76796C0.105593 2.91407 0.0186958 3.10854 0.0069742 3.31447C-0.00565723 3.525 -0.246496 8.51189 3.6204 12.3805C6.99384 15.7531 11.2195 15.9998 12.3832 15.9998C12.5533 15.9998 12.6578 15.9947 12.6856 15.9931C12.8915 15.9815 13.0858 15.8942 13.2312 15.748L14.7975 13.9198C14.9402 13.7535 15.0125 13.5382 14.999 13.3194C14.9855 13.1007 14.8872 12.8959 14.7251 12.7485L11.3028 9.63608Z" fill="#21B82F"/>
</svg>
